<svg xmlns="http://www.w3.org/2000/svg" width="3141" height="1280" viewBox="0 0 3141 1280">
  <metadata><?xpacket begin="﻿" id="W5M0MpCehiHzreSzNTczkc9d"?>
<x:xmpmeta xmlns:x="adobe:ns:meta/" x:xmptk="Adobe XMP Core 5.6-c138 79.159824, 2016/09/14-01:09:01        ">
   <rdf:RDF xmlns:rdf="http://www.w3.org/1999/02/22-rdf-syntax-ns#">
      <rdf:Description rdf:about=""/>
   </rdf:RDF>
</x:xmpmeta>
                                                                                                    
                                                                                                    
                                                                                                    
                                                                                                    
                                                                                                    
                                                                                                    
                                                                                                    
                                                                                                    
                                                                                                    
                                                                                                    
                                                                                                    
                                                                                                    
                                                                                                    
                                                                                                    
                                                                                                    
                                                                                                    
                                                                                                    
                                                                                                    
                                                                                                    
                                                                                                    
                           
<?xpacket end="w"?></metadata>
<defs>
    <style>
      .cls-1 {
        fill: #1879ba;
        fill-rule: evenodd;
      }
    </style>
  </defs>
  <path id="net" class="cls-1" d="M296.2,525.056q0-118.539,10.279-155.728t28.215-51.4q17.933-14.209,43.744-14.217,26.677,0,57.742,20.122l38.057-107.172q-38.938-23.181-80.926-23.184-29.752,0-53.149,14.873t-52.711,61.678V203.976H173.283v464.56H296.2V525.056ZM766.45,571.425q-19.685,15.747-48.555,15.748-42.435,0-70.865-30.4t-29.746-85.082H925.241q2.625-141.29-57.3-209.752t-163.6-68.459q-92.3,0-152.666,65.4T491.3,439.756q0,96.681,45.931,160.1,58.172,79.181,179.349,79.177,76.547,0,127.514-35.214t74.583-102.579L796.2,520.682Q786.13,555.685,766.45,571.425ZM619.471,396.449q-0.441-50.3,25.809-79.614t66.491-29.308q37.616,0,63.866,27.777T803.2,396.449H619.471ZM1054.5,640.54q55.335,38.5,150.26,38.5,104.55,0,157.92-45.931t53.37-109.8q0-58.614-38.5-91.425-38.94-32.367-137.13-54.68-98.22-22.309-114.83-34.558-12.255-9.186-12.25-22.309,0-15.307,14-24.934,21-13.554,69.55-13.561,38.49,0,59.27,14.436t28.22,41.556L1400.3,316.4q-17.5-60.8-63.87-91.862T1194.7,193.478q-100.17,0-147.85,41.119T999.168,336.083q0,66.927,55.122,104.548,39.8,27.128,188.53,59.929,31.935,7.443,41.12,16.185,8.745,9.186,8.75,23.184,0,20.567-16.19,32.808-24.06,17.5-71.74,17.5-43.3,0-67.36-18.591t-31.93-54.462l-123.362,18.81Q999.168,602.049,1054.5,640.54ZM1856.77,230q-50.1-36.519-134.95-36.526-103.68,0-164.48,64.084t-60.8,179.132q0,113.74,60.58,178.037t162.51,64.3q89.67,0,143.04-42.432t72.18-125.545L1814.12,490.5q-9.195,48.555-31.5,68.459t-57.3,19.9q-46.815,0-74.59-34.12t-27.77-116.8q0-74.361,27.34-106.079t73.27-31.714q34.545,0,56.21,18.372,21.645,18.372,27.78,54.68l121.17-21.872Q1906.845,266.53,1856.77,230Zm585.07,438.532V203.976H2318.92V399.949q0,99.736-9.18,125.326t-34.13,42.869q-24.93,17.286-56.42,17.279-27.57,0-45.5-12.9t-24.71-35q-6.8-22.083-6.78-120.077V203.976H2019.28V497.935q0,65.616,16.62,102.8t53.8,57.742q37.185,20.556,83.99,20.56a187.076,187.076,0,0,0,87.27-21.435q41.34-21.427,66.71-58.616v69.552h114.17Zm366.58-97.111q-19.7,15.747-48.56,15.748-42.435,0-70.87-30.4t-29.74-85.082h307.96q2.625-141.29-57.31-209.752t-163.6-68.459q-92.31,0-152.67,65.4t-60.36,180.881q0,96.681,45.93,160.1,58.17,79.181,179.35,79.177,76.545,0,127.51-35.214t74.58-102.579l-122.48-20.56Q2828.1,555.685,2808.42,571.425ZM2661.44,396.449q-0.45-50.3,25.8-79.614t66.5-29.308q37.605,0,63.86,27.777t27.56,81.145H2661.44Zm-1200,474.868q0-38.541-4.85-59.221a97.125,97.125,0,0,0-17.24-36.973q-12.375-16.289-36.5-26.79t-53.27-10.5q-66.105,0-109.66,56.4v-48.88h-81.78V1078.12h88.04V927.4q0-55.768,6.74-76.453a63.13,63.13,0,0,1,24.91-33.214,70.621,70.621,0,0,1,41.05-12.533q17.85,0,30.55,8.773t18.33,24.6q5.64,15.827,5.64,69.717v169.83h88.04v-206.8Zm260.7,137.243q-14.1,11.28-34.78,11.28-30.4,0-50.76-21.78t-21.31-60.943h220.59q1.875-101.2-41.05-150.244t-117.19-49.037q-66.105,0-109.35,46.844t-43.24,129.563q0,69.252,32.9,114.677,41.67,56.715,128.47,56.72,54.825,0,91.33-25.23t53.43-73.473l-87.74-14.727Q1736.24,997.282,1722.14,1008.56ZM1616.86,883.223q-0.315-36.029,18.48-57.027,18.81-20.988,47.63-20.993,26.94,0,45.75,19.9,18.795,19.9,19.74,58.123h-131.6Zm383.21-137.867v-117.5l-88.36,51.387v66.113h-40.42v70.187h40.42V960.617q0,46.692,2.82,62.043,3.435,21.615,12.37,34.31t28.05,20.68q19.1,7.98,42.92,7.99,38.85,0,69.56-13.16l-7.52-68.31q-23.19,8.46-35.4,8.46a24.82,24.82,0,0,1-14.89-4.39,19.3,19.3,0,0,1-7.83-11.12q-1.725-6.734-1.72-47.47V815.543h60.16V745.356h-60.16Z"/>
</svg>
